<?xml version="1.0" encoding="utf-8"?>
<!-- Generator: Adobe Illustrator 17.1.0, SVG Export Plug-In . SVG Version: 6.00 Build 0)  -->
<!DOCTYPE svg PUBLIC "-//W3C//DTD SVG 1.1//EN" "http://www.w3.org/Graphics/SVG/1.1/DTD/svg11.dtd">
<svg version="1.1" id="Layer_1" xmlns="http://www.w3.org/2000/svg" xmlns:xlink="http://www.w3.org/1999/xlink" x="0px" y="0px"
	 viewBox="0 0 302.345 178.186" enable-background="new 0 0 302.345 178.186" xml:space="preserve">
<g>
	<defs>
		<path id="SVGID_1_" d="M48.989,80.869c0,31.955,54.948,57.86,122.731,57.86c65.351,0,118.771-24.079,122.522-54.444v-6.833
			c-3.751-30.366-57.171-54.445-122.522-54.445C103.938,23.008,48.989,48.914,48.989,80.869"/>
	</defs>
	<clipPath id="SVGID_2_">
		<use xlink:href="#SVGID_1_"  overflow="visible"/>
	</clipPath>
	<path clip-path="url(#SVGID_2_)" fill="#67CFE3" d="M298.099,80.656c0,33.991-57.94,61.548-129.413,61.548
		S39.274,114.647,39.274,80.656s57.94-61.548,129.413-61.548S298.099,46.665,298.099,80.656"/>
	<path clip-path="url(#SVGID_2_)" fill="none" stroke="#FFFFFF" stroke-width="1.4872" stroke-miterlimit="10" d="M298.099,80.656
		c0,33.991-57.94,61.548-129.413,61.548S39.274,114.647,39.274,80.656s57.94-61.548,129.413-61.548S298.099,46.665,298.099,80.656"
		/>
	
		<rect x="6.729" y="7" clip-path="url(#SVGID_2_)" fill="none" stroke="#FFFFFF" stroke-width="1.4872" stroke-miterlimit="10" width="468.144" height="181.284"/>
</g>
<g>
	<defs>
		<path id="SVGID_3_" d="M48.006,81.478c0,31.955,54.948,57.86,122.731,57.86c65.351,0,118.771-24.079,122.522-54.444v-6.833
			c-3.751-30.366-57.171-54.445-122.522-54.445C102.954,23.616,48.006,49.522,48.006,81.478"/>
	</defs>
	<clipPath id="SVGID_4_">
		<use xlink:href="#SVGID_3_"  overflow="visible"/>
	</clipPath>
	<g clip-path="url(#SVGID_4_)">
		
			<text transform="matrix(0.9928 -0.1201 0.1201 0.9928 60.6367 129.6567)" fill="#FFFFFF" font-family="'GreatVibes-Regular'" font-size="122.8041">Envy</text>
	</g>
	<path clip-path="url(#SVGID_4_)" fill="none" stroke="#FFFFFF" stroke-width="1.4808" stroke-miterlimit="10" d="M119.99,73.243
		c-0.255-2.113-3.592-3.441-10.007-3.985c-2.842-0.315-5.682-0.775-8.517-1.382c-2.836-0.604-5.084-1.797-6.74-3.576
		c-1.659-1.778-2.63-3.845-2.916-6.203c-0.717-5.932,1.707-11.792,7.274-17.58c4.689-4.854,10.012-8.572,15.97-11.147
		c5.954-2.576,11.817-4.214,17.589-4.911c5.769-0.699,10.014-0.056,12.726,1.923c2.157,1.471,3.359,3.223,3.605,5.255
		c0.029,0.243,0.06,0.487,0.089,0.731c-0.013,5.363-2.091,9.984-6.24,13.867c-2.079,1.902-4.32,3.142-6.724,3.72
		c-2.404,0.581-3.71,1.377-3.916,2.391c-0.023,0.498,0.433,0.69,1.369,0.577c0.933-0.113,2.114-0.421,3.537-0.923
		c5.774-2.017,10.551-4.966,14.33-8.847c3.776-3.878,5.445-7.648,5.003-11.305c-0.315-2.601-2.091-5.005-5.326-7.211
		c-3.236-2.207-8.277-3.307-15.121-3.305c-1.646,0.036-3.321,0.155-5.028,0.361c-5.445,0.66-11.787,2.438-19.023,5.332
		c-7.237,2.898-13.951,7.379-20.144,13.447c-6.193,6.069-9.177,12.43-8.948,19.081c0.029,0.244,0.06,0.488,0.089,0.732
		c0.364,3.007,2.124,5.64,5.285,7.896c3.159,2.257,6.857,3.87,11.1,4.841c-3.882,0.636-8.196,1.961-12.941,3.978
		c-4.746,2.017-9.094,4.749-13.048,8.196c-3.956,3.447-6.864,7.015-8.725,10.705c-1.863,3.689-2.96,6.894-3.29,9.613
		c-0.332,2.721-0.388,4.976-0.172,6.762c0.216,1.79,0.808,3.614,1.776,5.476c3.686,7.306,10.294,11.823,19.825,13.558
		c5.397,0.995,12.282,0.988,20.654-0.025s17.176-3.563,26.413-7.649c9.236-4.085,16.704-8.988,22.404-14.709
		c5.697-5.719,8.273-10.855,7.722-15.408c-0.374-3.087-2.507-5.387-6.4-6.894c-0.955-0.38-2.126-0.526-3.517-0.441
		c-1.393,0.088-1.964,0.486-1.711,1.197c0.149,0.559,1.228,0.946,3.232,1.155c2.004,0.211,3.12,1.251,3.345,3.12
		c0.473,3.901-2.31,8.857-8.345,14.864c-5.3,5.261-12.022,10.033-20.163,14.315c-8.14,4.282-16.051,6.89-23.732,7.82
		c-7.68,0.929-13.899,0.65-18.655-0.835c-4.756-1.486-8.198-3.687-10.324-6.606c-2.128-2.917-3.415-6.246-3.868-9.986
		c-0.963-7.965,1.726-15.381,8.069-22.253c5.386-5.928,13.442-9.543,24.171-10.841l13.06-1.457
		C118.58,76.259,120.216,75.114,119.99,73.243z"/>
	<path clip-path="url(#SVGID_4_)" fill="none" stroke="#FFFFFF" stroke-width="1.4808" stroke-miterlimit="10" d="M197.554,72.269
		c-2.032,0.245-5.097,1.834-9.196,4.761c-4.099,2.93-7.544,5.985-10.333,9.167c-2.791,3.183-5.81,7.365-9.06,12.539
		c5.176-14.481,9.168-22.714,11.979-24.705c-0.632,0.242-1.631,0.32-3.001,0.239c-1.37-0.081-2.219-0.103-2.543-0.064
		c-1.707,0.207-2.99,0.857-3.846,1.95c-1.868,2.288-5.354,10.958-10.461,26.006c-2.846,8.509-4.761,14.142-5.748,16.9
		c0.53-0.395,1.684-0.741,3.461-1.037c1.777-0.299,2.96-0.587,3.545-0.862c0.586-0.276,1.073-0.852,1.462-1.724
		c4.146-11.388,8.822-20.117,14.025-26.189c3.46-4.13,5.879-6.278,7.262-6.446c1.38-0.167,2.124,0.175,2.227,1.03
		c0.103,0.853-0.205,2.065-0.92,3.637c-2.95,6.294-4.675,10.793-5.172,13.491c-0.498,2.7-0.636,4.962-0.414,6.791
		c0.221,1.829,0.801,3.223,1.743,4.181c1.818,2.09,4.211,2.954,7.179,2.594c2.967-0.358,5.733-2.363,8.303-6.013
		c2.568-3.651,5.48-10.083,8.736-19.302c0.254-0.608,0.36-1.115,0.31-1.523c-0.05-0.405-0.333-0.702-0.849-0.887
		c-0.517-0.184-0.951,0.323-1.302,1.519c-5.289,14.907-10.005,22.61-14.15,23.112c-1.546,0.187-2.444-0.775-2.7-2.889
		c-0.649-5.365,2.962-17.429,10.835-36.195C198.497,72.239,198.042,72.211,197.554,72.269z"/>
	<path clip-path="url(#SVGID_4_)" fill="none" stroke="#FFFFFF" stroke-width="1.4808" stroke-miterlimit="10" d="M232.88,63.665
		c-0.569,0.069-1.164,0.264-1.785,0.587c-3.031,1.523-4.999,4.686-5.902,9.496c-0.301,1.604-0.33,3.401-0.09,5.392
		c0.242,1.993,1.087,4.22,2.541,6.682c-1.876,6.99-3.948,12.354-6.217,16.09c-2.27,3.738-4.461,5.736-6.574,5.992
		c-0.732,0.088-1.485-0.006-2.261-0.283c-0.775-0.277-1.304-1.574-1.584-3.891c-0.28-2.316,0.451-7.001,2.195-14.058
		c1.744-7.056,2.316-13.062,1.716-18.02c-0.098-0.812-0.289-1.53-0.569-2.158c-0.282-0.624-0.833-0.908-1.65-0.852
		c-0.819,0.058-3.615,0.789-8.394,2.191c1.369,0.412,2.246,2.201,2.63,5.372c0.384,3.17-0.006,6.433-1.166,9.79l-1.693,4.411
		c-0.165,0.681,0.003,1.218,0.503,1.609c0.501,0.393,1.079-0.109,1.735-1.509c-1.593,7.286-2.188,12.594-1.783,15.925
		c0.53,4.389,3.071,6.308,7.623,5.758c5.609-0.679,10.452-5.635,14.53-14.87c2.776-6.355,5.457-16.247,8.038-29.672l0.343-2.268
		C234.91,64.081,234.179,63.508,232.88,63.665z"/>
	<path clip-path="url(#SVGID_4_)" fill="none" stroke="#FFFFFF" stroke-width="1.4808" stroke-miterlimit="10" d="M229.024,125.858
		c3.309-1.968,11.455-5.51,24.444-10.626l-2.137,4.835c-3.396,6.019-7.483,11.77-12.262,17.255
		c-4.779,5.485-9.524,8.514-14.24,9.083c-1.707,0.207-3.176-0.029-4.414-0.703c-1.235-0.675-1.945-1.764-2.127-3.268
		c-0.183-1.505,0.066-3.204,0.744-5.1C220.767,132.588,224.099,128.762,229.024,125.858z M245.941,138.903
		c5.691-6.132,10.976-15.266,15.858-27.4c4.272-2.168,7.666-4.125,10.175-5.87c2.51-1.748,4.716-3.973,6.615-6.677
		c1.9-2.704,3.399-5.297,4.501-7.78c1.101-2.484,2.158-5.167,3.17-8.053c1.012-2.884,1.493-4.529,1.444-4.937
		c-0.05-0.405-0.314-0.704-0.789-0.895c-0.477-0.189-0.93,0.32-1.361,1.525c-2.556,6.826-4.576,11.606-6.058,14.34
		c-3.367,6.264-8.731,10.995-16.096,14.194c0.754-3.307,1.825-8.261,3.212-14.861c1.385-6.601,2.56-11.895,3.521-15.888
		c0.958-3.991,1.914-7.178,2.862-9.562c0.949-2.382,2.39-4.433,4.328-6.152l-6.584,0.797c-2.276,0.275-3.757,1.321-4.445,3.136
		c-5.241,15.314-10.336,26.691-15.29,34.136c-2.371,3.586-4.329,5.471-5.872,5.658c-1.056,0.128-1.933-0.137-2.631-0.794
		c-0.699-0.658-1.155-1.88-1.371-3.668c-0.217-1.787,0.337-4.699,1.664-8.737c3.258-9.876,6.045-17.512,8.361-22.906
		c0.575-1.388,1.534-2.66,2.879-3.812c0.59-0.567,0.957-0.939,1.101-1.124l-7.437,0.9c-2.358,0.286-3.84,1.331-4.445,3.136
		c-1.346,3.874-3.081,8.62-5.204,14.237l-1.679,4.533c-0.412,1.369,0.033,1.975,1.333,1.818c-0.524,1.136-1.117,2.692-1.785,4.669
		c-0.105,0.507-0.333,1.34-0.688,2.495c-0.355,1.157-0.524,1.982-0.505,2.474c0.017,0.493,0.014,1.318-0.01,2.475
		c-0.027,1.159,0.159,2.003,0.553,2.531c1.174,3.569,3.956,5.088,8.345,4.558c3.25-0.394,6.26-2.447,9.027-6.165
		c2.766-3.715,6.005-10.003,9.716-18.864c-2.472,13.658-4.859,23.225-7.165,28.699c-1.882,0.803-6.137,2.452-12.762,4.946
		c-6.626,2.49-11.893,4.964-15.802,7.417c-5.222,3.187-8.638,6.982-10.251,11.384c-0.894,2.829-1.214,5.299-0.958,7.414
		c0.257,2.113,1.45,3.802,3.583,5.07c2.132,1.267,4.988,1.685,8.563,1.253C234.472,147.712,240.597,144.497,245.941,138.903z"/>
</g>
<g>
	<defs>
		<rect id="SVGID_5_" x="8" y="7.755" width="468.144" height="181.284"/>
	</defs>
	<clipPath id="SVGID_6_">
		<use xlink:href="#SVGID_5_"  overflow="visible"/>
	</clipPath>
	
		<ellipse clip-path="url(#SVGID_6_)" fill="none" stroke="#FFFFFF" stroke-width="0.9914" stroke-miterlimit="10" cx="170.63" cy="81.588" rx="122.611" ry="58.235"/>
</g>
</svg>
