<?xml version="1.0" encoding="utf-8"?>
<!-- Generator: Adobe Illustrator 17.1.0, SVG Export Plug-In . SVG Version: 6.00 Build 0)  -->
<!DOCTYPE svg PUBLIC "-//W3C//DTD SVG 1.1//EN" "http://www.w3.org/Graphics/SVG/1.1/DTD/svg11.dtd">
<svg version="1.1" id="Layer_1" xmlns="http://www.w3.org/2000/svg" xmlns:xlink="http://www.w3.org/1999/xlink" x="0px" y="0px"
	 viewBox="472.9 388.4 192.9 91.8" enable-background="new 472.9 388.4 192.9 91.8" xml:space="preserve">
<g>
	<defs>
		<path id="SVGID_1_" d="M569.4,388.4c-53.3,0-96.6,20.5-96.6,45.9c0,25.3,43.2,45.9,96.6,45.9c51.4,0,93.4-19.1,96.4-43.2v-5.4
			C662.9,407.5,620.8,388.4,569.4,388.4z"/>
	</defs>
	<clipPath id="SVGID_2_">
		<use xlink:href="#SVGID_1_"  overflow="visible"/>
	</clipPath>
	<path clip-path="url(#SVGID_2_)" fill="#67CFE3" d="M668.9,433.7c0,26.7-45.6,48.4-101.8,48.4s-101.8-21.7-101.8-48.4
		s45.6-48.4,101.8-48.4S668.9,406.9,668.9,433.7"/>
	<path clip-path="url(#SVGID_2_)" fill="none" stroke="#FFFFFF" stroke-width="1.17" stroke-miterlimit="10" d="M439.6,518.3h368.3
		V375.7H439.6V518.3z M668.9,433.7c0,26.7-45.6,48.4-101.8,48.4s-101.8-21.7-101.8-48.4s45.6-48.4,101.8-48.4
		S668.9,406.9,668.9,433.7"/>
	<g clip-path="url(#SVGID_2_)">
		
			<text transform="matrix(0.9928 -0.1201 0.1201 0.9928 484.3879 471.7344)" fill="#FFFFFF" font-family="'GreatVibes-Regular'" font-size="96.6148">Envy</text>
	</g>
	<path clip-path="url(#SVGID_2_)" fill="none" stroke="#FFFFFF" stroke-width="1.165" stroke-miterlimit="10" d="M630.2,479
		c4.5-4.8,8.6-12,12.5-21.6c3.4-1.7,6-3.2,8-4.6c2-1.4,3.7-3.1,5.2-5.3c1.5-2.1,2.7-4.2,3.5-6.1c0.9-2,1.7-4.1,2.5-6.3
		c0.8-2.3,1.2-3.6,1.1-3.9c0-0.3-0.2-0.6-0.6-0.7c-0.4-0.1-0.7,0.3-1.1,1.2c-2,5.4-3.6,9.1-4.8,11.3c-2.6,4.9-6.9,8.6-12.7,11.2
		c0.6-2.6,1.4-6.5,2.5-11.7c1.1-5.2,2-9.4,2.8-12.5c0.8-3.1,1.5-5.6,2.3-7.5c0.7-1.9,1.9-3.5,3.4-4.8l-5.2,0.6c-1.8,0.2-3,1-3.5,2.5
		c-4.1,12-8.1,21-12,26.9c-1.9,2.8-3.4,4.3-4.6,4.5c-0.8,0.1-1.5-0.1-2.1-0.6c-0.5-0.5-0.9-1.5-1.1-2.9c-0.2-1.4,0.3-3.7,1.3-6.9
		c2.6-7.8,4.8-13.8,6.6-18c0.5-1.1,1.2-2.1,2.3-3c0.5-0.4,0.8-0.7,0.9-0.9l-5.9,0.7c-1.9,0.2-3,1-3.5,2.5c-1.1,3-2.4,6.8-4.1,11.2
		l-1.3,3.6c-0.3,1.1,0,1.6,1,1.4c-0.4,0.9-0.9,2.1-1.4,3.7c-0.1,0.4-0.3,1.1-0.5,2c-0.3,0.9-0.4,1.6-0.4,1.9c0,0.4,0,1,0,1.9
		c0,0.9,0.1,1.6,0.4,2c0.9,2.8,3.1,4,6.6,3.6c2.6-0.3,4.9-1.9,7.1-4.9c2.2-2.9,4.7-7.9,7.6-14.8c-1.9,10.7-3.8,18.3-5.6,22.6
		c-1.5,0.6-4.8,1.9-10,3.9c-5.2,2-9.4,3.9-12.4,5.8c-4.1,2.5-6.8,5.5-8.1,9c-0.7,2.2-1,4.2-0.8,5.8c0.2,1.7,1.1,3,2.8,4
		c1.7,1,3.9,1.3,6.7,1C621.2,485.9,626,483.4,630.2,479z M616.9,468.7c2.6-1.5,9-4.3,19.2-8.4l-1.7,3.8c-2.7,4.7-5.9,9.3-9.6,13.6
		c-3.8,4.3-7.5,6.7-11.2,7.1c-1.3,0.2-2.5,0-3.5-0.6c-1-0.5-1.5-1.4-1.7-2.6c-0.1-1.2,0.1-2.5,0.6-4C610.4,474,613,471,616.9,468.7z
		 M619.9,419.8c-0.4,0.1-0.9,0.2-1.4,0.5c-2.4,1.2-3.9,3.7-4.6,7.5c-0.2,1.3-0.3,2.7-0.1,4.2c0.2,1.6,0.9,3.3,2,5.3
		c-1.5,5.5-3.1,9.7-4.9,12.7c-1.8,2.9-3.5,4.5-5.2,4.7c-0.6,0.1-1.2,0-1.8-0.2c-0.6-0.2-1-1.2-1.2-3.1c-0.2-1.8,0.4-5.5,1.7-11.1
		c1.4-5.6,1.8-10.3,1.4-14.2c-0.1-0.6-0.2-1.2-0.4-1.7c-0.2-0.5-0.7-0.7-1.3-0.7c-0.6,0-2.8,0.6-6.6,1.7c1.1,0.3,1.8,1.7,2.1,4.2
		c0.3,2.5,0,5.1-0.9,7.7l-1.3,3.5c-0.1,0.5,0,1,0.4,1.3c0.4,0.3,0.8-0.1,1.4-1.2c-1.3,5.7-1.7,9.9-1.4,12.5c0.4,3.5,2.4,5,6,4.5
		c4.4-0.5,8.2-4.4,11.4-11.7c2.2-5,4.3-12.8,6.3-23.3l0.3-1.8C621.5,420.1,620.9,419.7,619.9,419.8z M592.1,426.6
		c-1.6,0.2-4,1.4-7.2,3.7c-3.2,2.3-5.9,4.7-8.1,7.2c-2.2,2.5-4.6,5.8-7.1,9.9c4.1-11.4,7.2-17.9,9.4-19.4c-0.5,0.2-1.3,0.3-2.4,0.2
		s-1.7-0.1-2-0.1c-1.3,0.2-2.4,0.7-3,1.5c-1.5,1.8-4.2,8.6-8.2,20.5c-2.2,6.7-3.7,11.1-4.5,13.3c0.4-0.3,1.3-0.6,2.7-0.8
		c1.4-0.2,2.3-0.5,2.8-0.7c0.5-0.2,0.8-0.7,1.2-1.4c3.3-9,6.9-15.8,11-20.6c2.7-3.2,4.6-4.9,5.7-5.1c1.1-0.1,1.7,0.1,1.8,0.8
		c0.1,0.7-0.2,1.6-0.7,2.9c-2.3,5-3.7,8.5-4.1,10.6c-0.4,2.1-0.5,3.9-0.3,5.3s0.6,2.5,1.4,3.3c1.4,1.6,3.3,2.3,5.6,2
		c2.3-0.3,4.5-1.9,6.5-4.7c2-2.9,4.3-7.9,6.9-15.2c0.2-0.5,0.3-0.9,0.2-1.2c0-0.3-0.3-0.6-0.7-0.7c-0.4-0.1-0.7,0.3-1,1.2
		c-4.2,11.7-7.9,17.8-11.1,18.2c-1.2,0.1-1.9-0.6-2.1-2.3c-0.5-4.2,2.3-13.7,8.5-28.5C592.8,426.6,592.5,426.5,592.1,426.6z
		 M531.1,427.4c-0.2-1.7-2.8-2.7-7.9-3.1c-2.2-0.2-4.5-0.6-6.7-1.1c-2.2-0.5-4-1.4-5.3-2.8c-1.3-1.4-2.1-3-2.3-4.9
		c-0.6-4.7,1.3-9.3,5.7-13.8c3.7-3.8,7.9-6.7,12.6-8.8c4.7-2,9.3-3.3,13.8-3.9c4.5-0.5,7.9,0,10,1.5c1.7,1.2,2.6,2.5,2.8,4.1
		c0,0.2,0,0.4,0.1,0.6c0,4.2-1.6,7.9-4.9,10.9c-1.6,1.5-3.4,2.5-5.3,2.9c-1.9,0.5-2.9,1.1-3.1,1.9c0,0.4,0.3,0.5,1.1,0.5
		c0.7-0.1,1.7-0.3,2.8-0.7c4.5-1.6,8.3-3.9,11.3-7c3-3.1,4.3-6,3.9-8.9c-0.2-2-1.6-3.9-4.2-5.7c-2.5-1.7-6.5-2.6-11.9-2.6
		c-1.3,0-2.6,0.1-4,0.3c-4.3,0.5-9.3,1.9-15,4.2c-5.7,2.3-11,5.8-15.8,10.6c-4.9,4.8-7.2,9.8-7,15c0,0.2,0,0.4,0.1,0.6
		c0.3,2.4,1.7,4.4,4.2,6.2c2.5,1.8,5.4,3,8.7,3.8c-3.1,0.5-6.4,1.5-10.2,3.1c-3.7,1.6-7.2,3.7-10.3,6.4c-3.1,2.7-5.4,5.5-6.9,8.4
		c-1.5,2.9-2.3,5.4-2.6,7.6c-0.3,2.1-0.3,3.9-0.1,5.3c0.2,1.4,0.6,2.8,1.4,4.3c2.9,5.7,8.1,9.3,15.6,10.7c4.2,0.8,9.7,0.8,16.2,0
		c6.6-0.8,13.5-2.8,20.8-6c7.3-3.2,13.1-7.1,17.6-11.6c4.5-4.5,6.5-8.5,6.1-12.1c-0.3-2.4-2-4.2-5-5.4c-0.8-0.3-1.7-0.4-2.8-0.3
		c-1.1,0.1-1.5,0.4-1.3,0.9c0.1,0.4,1,0.7,2.5,0.9c1.6,0.2,2.5,1,2.6,2.5c0.4,3.1-1.8,7-6.6,11.7c-4.2,4.1-9.5,7.9-15.9,11.3
		c-6.4,3.4-12.6,5.4-18.7,6.2c-6,0.7-10.9,0.5-14.7-0.7c-3.7-1.2-6.5-2.9-8.1-5.2c-1.7-2.3-2.7-4.9-3-7.9
		c-0.8-6.3,1.4-12.1,6.3-17.5c4.2-4.7,10.6-7.5,19-8.5l10.3-1.1C530,429.7,531.3,428.8,531.1,427.4z"/>
</g>
<ellipse fill="none" stroke="#FDFDFD" stroke-width="3" stroke-miterlimit="10" cx="569.4" cy="434.3" rx="96.5" ry="45.9"/>
</svg>
